<?xml version="1.0" standalone="no"?>
<!DOCTYPE svg PUBLIC "-//W3C//DTD SVG 1.1//EN" "http://www.w3.org/Graphics/SVG/1.1/DTD/svg11.dtd">
<svg xmlns="http://www.w3.org/2000/svg" width="628" height="683" viewBox="0 0 628 683"><path fill-rule="evenodd" d="M470.559 159.519c-1.435 1.095-4.729 1.481-12.628 1.481-8.279 0-10.967.338-11.931 1.5-.997 1.202-4.01 1.5-15.155 1.5-10.101 0-14.892.411-17.499 1.5-1.975.825-6.405 1.5-9.846 1.5-4.34 0-6.636.459-7.5 1.5-.877 1.056-3.199 1.5-7.853 1.5-4.046 0-8.555.733-11.628 1.891-9.141 3.445-12.103 4.109-18.316 4.109-4.33 0-7.101.576-9.347 1.941-1.966 1.196-4.19 1.742-5.789 1.422-1.456-.291-4.913.394-7.869 1.559-2.9 1.143-7.457 2.078-10.128 2.078q-4.858 0-5.393 1.4c-.31.807-1.944 1.406-3.857 1.413-1.826.007-4.67.724-6.32 1.594-1.65.869-4.125 1.599-5.5 1.622s-3.625.685-5 1.471-3.907 1.445-5.628 1.465c-1.72.019-3.687.71-4.372 1.535q-1.246 1.5-6.872 1.532c-3.355.019-6.412.625-7.569 1.5-1.068.807-2.562 1.468-3.322 1.468-.759 0-2.055.675-2.88 1.5s-2.93 1.503-4.678 1.506c-1.749.004-4.468.679-6.043 1.5-1.576.822-3.34 1.494-3.922 1.494-.581 0-1.8.673-2.708 1.495s-3.869 1.783-6.579 2.135-8.56 2.379-13 4.505-8.533 3.865-9.095 3.865-1.837.9-2.832 2c-1.076 1.189-3.08 2-4.943 2-3.551 0-13.08 3.123-14.812 4.855-.63.63-1.885 1.145-2.79 1.145s-2.46.9-3.455 2-2.235 2-2.755 2-4.838 1.852-9.595 4.115-9.663 4.502-10.9 4.975-2.25 1.266-2.25 1.762-2.362 1.913-5.25 3.15-6.987 3.811-9.11 5.72c-2.124 1.91-5.499 4.154-7.5 4.988-2.002.833-3.865 1.802-4.14 2.152-1.845 2.353-13.384 11.353-16.398 12.791-2.097 1-3.903 2.699-4.223 3.973-.307 1.225-2.283 3.421-4.39 4.881-2.755 1.91-5.532 5.692-9.885 13.467-6.012 10.735-6.056 10.873-6.308 19.669-.23 8.056-.011 9.264 2.42 13.357 1.471 2.475 4.241 7.425 6.157 11 2.504 4.671 5.207 7.875 9.605 11.386 3.366 2.687 9.032 7.525 12.591 10.75s7.141 5.864 7.96 5.864c.818 0 3.352 1.35 5.63 3s4.549 3 5.047 3 3.627 1.35 6.953 3c3.599 1.786 7.624 3 9.944 3 2.143 0 3.897.37 3.897.823s2.965 2.04 6.589 3.528c4.879 2.004 7.485 2.538 10.04 2.059s3.954-.193 5.386 1.104c1.066.964 4.049 1.927 6.637 2.143 2.586.215 5.307.894 6.047 1.508s5.722 1.326 11.073 1.583c5.814.28 10.619 1.028 11.943 1.86 3.243 2.039 44.692 1.946 48.285-.108 1.788-1.022 6.062-1.441 15-1.471 9.252-.031 13.268-.442 15.457-1.583 2.052-1.07 5.917-1.553 12.632-1.576 6.337-.023 10.617-.524 12.407-1.452 3.065-1.59 8.504-1.909 8.504-.498 0 .506-2.475 3.282-5.5 6.169s-5.5 5.793-5.5 6.459-1.462 1.801-3.25 2.524-3.503 1.68-3.812 2.126-1.927 1.821-3.596 3.056c-3.806 2.816-16.403 13.872-22.214 19.496-2.415 2.337-4.715 4.25-5.111 4.25s-2.25 1.462-4.119 3.25c-3.959 3.786-10.34 9.405-17.887 15.75-11.51 9.678-14.592 12.378-16.713 14.646-1.211 1.295-2.631 2.354-3.155 2.354s-2.132 2.012-3.573 4.471c-1.469 2.506-6.454 7.672-11.34 11.75-15.557 12.986-24.207 21.312-26.195 25.211-1.93 3.785-1.93 3.853.003 7.643 1.073 2.103 3.081 4.633 4.462 5.624 2.45 1.757 5.801 4.735 16 14.217 2.75 2.557 7.279 6.547 10.064 8.867l5.065 4.217h9.104c9.944 0 12.267-.493 12.267-2.604 0-.765 1.575-3.134 3.5-5.264s3.5-4.367 3.5-4.969c0-2.457 13.458-14.084 17.988-15.541 2.199-.708 3.613-1.861 3.828-3.122.337-1.98 5.519-7.272 12.079-12.337 1.867-1.441 3.949-3.94 4.626-5.552.814-1.934 2.379-3.301 4.606-4.021 2.271-.734 3.475-1.804 3.684-3.274s1.242-2.388 3.157-2.809c3.167-.696 9.546-6.4 10.493-9.383.336-1.059 1.735-2.207 3.11-2.553 1.375-.345 2.901-1.682 3.391-2.972s2.02-2.629 3.398-2.975 2.792-1.528 3.141-2.626c.348-1.099 1.123-1.998 1.722-1.998 1.818 0 7.777-5.005 7.777-6.532 0-.786 1.238-1.738 2.75-2.114 3.47-.863 9.25-6.221 9.25-8.574 0-1.095.747-1.78 1.94-1.78 1.067 0 4.876-2.25 8.464-5s7.214-5 8.057-5c2.268 0 9.238-6.665 9.954-9.518.433-1.724 2.354-3.362 6.353-5.415 3.152-1.619 7.082-4.218 8.732-5.776 5.059-4.777 8.69-7.291 9.661-6.691 1.352.835 3.839-1.547 3.839-3.675 0-1.245 1.131-2.143 3.532-2.806 1.942-.536 4.782-2.245 6.311-3.797 6.107-6.2 15.409-13.877 17.958-14.822 3.797-1.407 8.199-5.497 8.199-7.618 0-1.493 1.026-1.835 6.241-2.084 5.625-.269 6.365-.559 7.503-2.94.712-1.49 2.45-2.941 3.987-3.327 1.498-.376 4.853-2.674 7.454-5.107s5.593-4.424 6.65-4.424c1.056 0 2.499-.697 3.206-1.55.707-.852 3.349-2.489 5.87-3.637s5.934-3.092 7.586-4.319 4.128-2.504 5.503-2.838c1.375-.333 4.862-2.923 7.75-5.754 5.223-5.122 5.25-5.181 5.25-11.39 0-4.462-.514-6.922-1.801-8.627-2.072-2.745-8.487-13.853-12.639-21.885-6.665-12.895-10.775-15.958-20.679-15.414-3.641.2-7.916.894-9.5 1.541-2.789 1.14-7.319 1.975-19.881 3.666-3.3.444-6.983 1.347-8.184 2.007-1.202.66-3.509 1.2-5.128 1.2s-3.503.675-4.188 1.5-2.877 1.516-4.872 1.535c-1.996.02-4.753.679-6.128 1.465s-4.715 1.445-7.421 1.465c-3.228.023-5.581.632-6.839 1.77-1.368 1.239-4.109 1.842-9.578 2.108-4.214.205-8.193.804-8.843 1.33-.649.527-3.799 1.219-7 1.539s-6.707 1.19-7.792 1.935c-1.084.744-3.606 1.353-5.603 1.353-2.469 0-4.479.785-6.278 2.452-2.33 2.159-2.646 3.217-2.646 8.845 0 8.562-1.62 10.114-10.262 9.832-4.669-.152-7.181.309-9.984 1.834-3.169 1.723-5.568 2.037-15.559 2.037-8.838 0-12.302.37-13.754 1.468-1.333 1.009-4.603 1.489-10.441 1.536-5.422.043-9.405.584-11 1.496-1.884 1.077-6.599 1.438-19.128 1.465-12.453.026-17.529.412-20.218 1.535-2.669 1.115-7.581 1.5-19.154 1.5-11.468 0-16.495.389-19.101 1.478-2.886 1.205-4.34 1.263-7.903.31-3.351-.896-4.974-.891-6.978.022-3.886 1.771-28.298 1.531-31.518-.31-1.535-.877-5.395-1.443-10-1.466-10.164-.05-14.382-2.109-14.807-7.229-.267-3.212.073-3.891 2.601-5.199 3.566-1.843 5.684-4.953 7.193-10.559 1.357-5.04 8.748-12.61 13.283-13.606 1.613-.355 3.746-1.457 4.738-2.449.993-.993 3.984-2.887 6.648-4.209 3.342-1.658 5.464-3.576 6.844-6.183 2.365-4.468 5.663-6.516 10.576-6.565 3.847-.038 7.433-2.933 8.086-6.527.238-1.308 1.389-2.169 3.35-2.505 2.32-.398 3.056-1.101 3.294-3.145.288-2.488.657-2.654 6.732-3.041 5.203-.332 6.954-.903 9.195-3.001 1.522-1.425 3.892-2.928 5.267-3.339s3.978-2.036 5.785-3.612c2.392-2.086 4.329-2.865 7.127-2.865 2.196 0 4.377-.643 5.088-1.5.685-.825 2.231-1.5 3.435-1.5s3.484-1.35 5.065-3c1.735-1.811 3.89-2.998 5.437-2.995 1.41.003 4.588-.652 7.063-1.454 9.423-3.055 14.943-4.551 16.788-4.551 1.051 0 3.892-1.438 6.312-3.195 3.263-2.37 5.563-3.231 8.9-3.332 4.009-.122 11.068-2.82 21.154-8.087 1.46-.762 4.835-1.4 7.5-1.418 2.665-.017 5.719-.692 6.787-1.5 1.143-.864 4.133-1.468 7.272-1.468 4.715 0 5.461-.288 6.469-2.5 1.202-2.638 3.665-3.253 5.536-1.382.614.614 3.866 1.117 7.226 1.117 5.01 0 6.811-.486 10.009-2.703 2.146-1.486 5.773-2.954 8.06-3.261s4.37-1.106 4.628-1.777c.329-.859 2.446-1.079 7.163-.746 5.093.36 8.44-.057 13.982-1.745 5.3-1.615 8.484-2.04 11.688-1.559 3.405.51 5.313.195 8.424-1.392 2.212-1.129 5.863-2.052 8.112-2.052s5.418-.687 7.041-1.526c1.87-.967 5.099-1.442 8.813-1.295 4.258.168 6.612-.261 8.605-1.567 2.306-1.511 4.763-1.778 15.388-1.675 20.281.198 22.737-.389 30.54-7.297 3.641-3.222 6.885-6.916 7.209-8.207.769-3.062-4.807-12.951-8.349-14.806-1.422-.745-3.564-3.104-4.76-5.241l-2.174-3.886-17.912-.231c-14.542-.188-18.276.047-19.852 1.25M332.581 558.75c-.414.413-2.176.837-3.917.943-10.868.664-14.494 1.548-15.064 3.674-.315 1.173-.579 12.595-.586 25.383-.012 20.334-.209 23.25-1.565 23.25-.853 0-2.196-1.544-2.985-3.432s-1.891-3.714-2.449-4.059-1.015-1.392-1.015-2.327-2.475-5.397-5.5-9.915-5.5-8.875-5.5-9.682-.496-1.773-1.102-2.148-1.741-2.089-2.522-3.809c-3.019-6.651-7.886-12.114-11.075-12.432-2.685-.268-3.365.238-5.717 4.25-1.467 2.505-3.109 4.554-3.648 4.554-.538 0-1.506 1.237-2.151 2.75s-1.74 3.439-2.435 4.281c-1.513 1.833-6.813 11.196-8.858 15.651-.804 1.75-1.919 3.464-2.477 3.809S253 601.006 253 602.09s-.675 2.232-1.5 2.548c-.825.317-1.5 1.142-1.5 1.834s-.926 2.436-2.058 3.875c-1.51 1.919-1.976 3.756-1.75 6.885.307 4.258.317 4.268 4.291 4.268 3.827 0 4.007-.147 4.592-3.747.335-2.06 1.355-4.571 2.267-5.578S259 609.89 259 609.337c0-1.218 4.856-5.649 8.129-7.419 1.498-.81 6.88-1.346 14.621-1.458 11.029-.158 12.25-.003 12.25 1.56 0 .954.643 2.268 1.428 2.92 1.973 1.637 6.572 10.624 6.572 12.842 0 1 .54 2.358 1.2 3.018.922.922 32.972 1.196 138.25 1.185 75.378-.009 137.6-.365 138.272-.792 1.642-1.044 1.923-55.119.302-58.148-.911-1.702-2.075-2.045-6.937-2.045-3.973 0-6.24-.48-7.087-1.5-1.703-2.052-18.41-2.052-22 0-3.683 2.105-38.782 2.132-41.559.032-2.392-1.809-6.129-1.967-6.691-.282-.325.976-10.388 1.25-45.833 1.249-24.979 0-46.542-.08-47.917-.177s-9.507.046-18.071.318c-13.327.424-15.759.27-16.873-1.072-1.649-1.988-5.433-2.024-7.056-.068-1.56 1.88-3.929 1.869-6.441-.032-2.531-1.914-7.458-1.895-8.197.032-.317.825-1.598 1.5-2.847 1.5s-2.83-.675-3.515-1.5c-1.309-1.578-5.14-2.025-6.419-.75m-285.19 4.589-2.891 2.485-.299 25.823c-.165 14.202-.058 26.788.239 27.969.664 2.648 4.79 3.612 7.459 1.743 1.785-1.251 1.892-2.257 1.37-12.858C52.73 597.549 52.796 597 54.664 597c1.079 0 3.234 1.328 4.789 2.951 1.556 1.624 4.115 3.234 5.688 3.58 1.572.345 2.859 1.286 2.859 2.09 0 2.362 3.738 5.699 8.25 7.366 2.764 1.021 4.715 2.566 5.722 4.531 2.058 4.017 2.938 4.548 7.028 4.243 5.373-.401 5.329-3.831-.122-9.386-2.362-2.406-4.838-4.375-5.503-4.375s-1.358-.36-1.542-.799c-.332-.797-9.228-9.004-15.935-14.701-1.942-1.65-3.832-3.508-4.199-4.129-.877-1.484 4.05-6.371 6.424-6.371 1.017 0 4.768-2.475 8.333-5.5s7.094-5.5 7.84-5.5c1.554 0 5.704-4.117 5.704-5.659 0-1.727-3.524-4.341-5.851-4.341-1.207 0-4.096 1.725-6.421 3.833s-6.31 4.821-8.855 6.029-6.268 3.79-8.272 5.737c-5.625 5.463-7.101 4.459-7.101-4.825 0-5.71-.411-8.087-1.609-9.296-1.484-1.498-1.834-1.432-4.5.861m57.569.267c-.593 1.559-.884 13.703-.726 30.206l.266 27.599 2.5.622c1.375.342 3.513.177 4.75-.366l2.25-.988v-28.268c0-24.365-.217-28.485-1.571-29.84-2.518-2.518-6.319-1.991-7.469 1.035m74.611-1.035c-1.308 1.308-1.571 4.484-1.571 18.941 0 9.554-.355 17.589-.789 17.858-.434.268-2.703-1.281-5.043-3.441S167.483 592 166.957 592s-.957-.371-.957-.825-5.435-5.516-12.078-11.25-13.389-11.662-14.991-13.175c-3.505-3.309-7.411-3.589-8.987-.645-.762 1.424-1.088 10.56-1.008 28.25.104 22.94.319 26.296 1.753 27.373 1.636 1.23 6.323.7 7.338-.83.289-.436.455-5.201.367-10.587-.134-8.232.141-10.176 1.724-12.188 2.247-2.857 2.412-4.982.445-5.737-1.606-.617-1.09-2.919 1.27-5.665 1.391-1.618 1.325-1.922-.736-3.366-1.485-1.04-1.927-1.925-1.282-2.57 1.576-1.576 5.126.131 5.792 2.785.678 2.701 5.75 7.43 7.97 7.43.783 0 1.427.337 1.433.75.017 1.314 18.386 19.049 22.788 22.001 1.263.848 2.928 3.051 3.699 4.895 1.07 2.563 2.003 3.354 3.952 3.354H188v-29.465c0-28.107-.089-29.512-1.934-30.5-2.713-1.452-4.668-1.29-6.495.536m20.404.994c-1.312 3.452-1.254 3.872.787 5.719 1.038.94 4.015 1.722 7.25 1.905l5.488.311.135 24.335c.086 15.403.519 24.719 1.18 25.38 1.62 1.62 5.967 1.752 7.238.221.795-.957 1.102-8.358 1.005-24.219-.077-12.562.152-23.6.508-24.528.496-1.292 1.897-1.689 5.97-1.689 5.675 0 8.464-1.647 8.464-5 0-4.473-2.119-5-20.096-5H200.95zm338.68 5.891c-.307.8-.558 7.815-.558 15.589 0 14.33-.6 16.955-3.875 16.955-1.691 0-7.074-3.72-11.722-8.101-9.899-9.329-18.346-16.108-20.654-16.574-1.459-.295-4.302-2.091-6.316-3.991-6.74-6.357-7.026-5.627-7.058 17.992-.03 22.705.361 24.383 4.891 21.007 3.358-2.503 4.098-11.482 1.246-15.105-1.601-2.034-1.726-2.939-.816-5.905.591-1.927.84-4.115.554-4.862-.287-.748.617-2.588 2.008-4.089 3.148-3.394 3.941-3.069 13.698 5.628 4.01 3.575 8.902 7.937 10.869 9.693s5.828 5.055 8.578 7.33 6.197 5.226 7.66 6.557 3.376 2.42 4.25 2.42c1.407 0 1.59-2.645 1.59-23 0-21.9-.091-23-1.893-23-1.041 0-2.144.655-2.452 1.456m24.785-.16c-.737 1.921-.111 43.371.667 44.146.334.333 1.355.318 2.269-.033 1.491-.572 1.634-2.907 1.393-22.76-.245-20.165-.424-22.153-2.022-22.46-.964-.185-2.002.313-2.307 1.107M330 574.171c0 3.463-.561 5.792-1.699 7.049-1.314 1.451-1.644 3.449-1.46 8.815.194 5.646-.14 7.453-1.792 9.702-2.054 2.796-3.062 10.815-1.646 13.106 1.368 2.214 2.577 1.132 3.219-2.879.372-2.33 1.392-4.436 2.411-4.982 1.531-.819 1.711-2.084 1.348-9.495-.503-10.305.38-12.487 5.056-12.487 2.744 0 3.568.509 4.451 2.75.596 1.513 1.54 3.538 2.098 4.5 2.567 4.428 3.079 5.389 3.971 7.445.523 1.207 2.771 3.907 4.996 6 2.224 2.093 4.044 4.362 4.045 5.044.003 1.71 3.174 5.261 4.699 5.261.688 0 1.905-1.237 2.704-2.75s2.836-3.87 4.526-5.239 3.075-3.169 3.078-4 1.329-2.924 2.947-4.651c3.805-4.059 7.04-9.39 7.044-11.61.003-1.244.804-1.75 2.768-1.75 2.326 0 3.108.753 4.936 4.75 1.333 2.916 2.313 7.383 2.538 11.568.201 3.751.835 7.126 1.41 7.5.574.375 1.347 1.919 1.717 3.432.933 3.812 4.635 3.875 4.635.079 0-1.469-.723-3.471-1.608-4.448-1.234-1.364-1.58-3.745-1.488-10.246.078-5.575-.312-8.938-1.143-9.841-2.387-2.596-3.761-5.773-3.761-8.699 0-8.267-3.596-8.203-8.588.155-2.054 3.438-5.018 7.547-6.587 9.133s-3.124 3.959-3.454 5.276-1.485 2.867-2.565 3.445-2.416 2.348-2.969 3.933c-1.15 3.3-3.608 4.392-7.807 3.47-2.09-.459-3.956-2.195-6.531-6.075-1.983-2.988-4.007-5.432-4.496-5.432s-2.103-2.7-3.583-6c-1.481-3.3-3.033-6-3.448-6s-1.023-1.065-1.349-2.367c-.592-2.358-6.271-8.633-7.813-8.633-.445 0-.81 2.327-.81 5.171m110.29-2.421c-.356.962-2.499 3.886-4.762 6.497-2.264 2.611-5.624 7.689-7.469 11.285-1.844 3.595-4.583 7.572-6.086 8.837s-3.036 3.253-3.405 4.418c-.37 1.164-2.258 3.703-4.195 5.64-4.04 4.04-3.713 5.573 1.186 5.573 2.7 0 3.441-.405 3.441-1.878 0-1.032.652-2.418 1.449-3.08s1.943-2.7 2.547-4.531c1.786-5.411 5.243-6.413 21.004-6.082 17.005.357 16 .185 16 2.737 0 1.191.688 2.879 1.528 3.75s2.544 3.156 3.785 5.077c2.625 4.063 5.687 5.214 5.687 2.139 0-1.108-.401-2.262-.891-2.564s-2.122-2.917-3.627-5.809c-1.506-2.893-4.262-6.956-6.126-9.03s-4.086-5.514-4.939-7.644-2.869-5.048-4.483-6.486-2.934-3.151-2.934-3.807c0-.876-.295-.897-1.114-.078-.818.818-.415 2.529 1.519 6.45 1.447 2.935 3.16 6.086 3.805 7.002.913 1.296.872 2.03-.182 3.3-1.098 1.324-2.816 1.559-9.038 1.239-4.225-.218-8.201-.717-8.836-1.11-1.584-.979-1.453-5.153.214-6.82.753-.753 1.674-2.332 2.048-3.51s2.682-3.407 5.13-4.953c4.447-2.81 4.988-3.757 3.847-6.73-.817-2.128-4.296-2.014-5.103.168M274.66 586l-3.575 6h7.541c4.147 0 7.391-.381 7.207-.847-1.941-4.931-5.54-11.153-6.452-11.153-.631 0-2.756 2.7-4.721 6"/></svg>